<svg xmlns="http://www.w3.org/2000/svg" viewBox="0 0 512 512">
  <rect width="512" height="512" fill="#0f172a" rx="100" />
  <path fill="#8b5cf6" d="M256,64L80,144v128c0,119.5,75.4,228.4,176,260.6C356.6,500.4,432,391.5,432,272V144L256,64z"/>
  <path fill="#3b82f6" d="M256,96L112,160v112c0,95.5,59.3,181.7,144,208.5C340.7,453.7,400,367.5,400,272V160L256,96z"/>
  <circle cx="256" cy="288" r="64" fill="#ffffff" />
  <path fill="#0f172a" d="M256,240c-26.5,0-48,21.5-48,48s21.5,48,48,48s48-21.5,48-48S282.5,240,256,240z M272,312h-32v-48h32V312z M272,248h-32v-16h32V248z"/>
</svg>
